<?xml version="1.0" encoding="UTF-8"?><svg id="uuid-2ec2e2cb-aad6-4322-b24e-de7529cb528e" xmlns="http://www.w3.org/2000/svg" viewBox="0 0 1500.24 1500.24"><g id="uuid-8d3b89f0-3ebe-41cc-9343-25b118313470"><path d="M1.92,544.233c18.249-4.444,55.617-41.898,68.643-56.617,27.835-31.452,64.677-93.002,107.772-100.515,75.174-13.106,121.378,104.429,149.768,156.817,32.295,59.595,88.464,165.893,145.562,201.903,69.737,43.981,107.624-63.898,122.656-113.506,12.543-41.392,19.666-91.191,37.012-130.002,30.425-68.077,86.617-43.314,111.372,12.781,46.026,104.295-28.952,218.354-37.288,323.341-9.87,124.307,72.455,233.791,160.272,311.954,73.219,65.17,208.413,153.395,309.824,116.868,70.875-25.528,109.017-94.962,137.646-159.906,27.492-62.365,53.817-173.932,147.052-128.192,13.714,6.728,26.922,17.368,38.03,27.72v19.197c-24.863-26.227-70.3-59.329-106.456-34.947-30.987,20.896-55.725,100.01-71.906,135.421-43.273,94.7-109.528,178.203-225.935,161.286-124.951-18.159-276.778-143.009-343.424-247.362-1.263-1.978-1.807-5.137-4.329-6.7-.864,2.809,2.917,5.714,3.369,6.7,69.772,152.097,197.086,339.643,389.207,322.498,126.599-11.297,121.256-126.546,184.287-203.491,46.998-57.373,114.01-41.606,175.186-19.183v15.358c-24.373-9.577-50.018-18.445-76.318-21.106-94.656-9.576-112.034,78.839-147.785,144.947-39.579,73.186-84.337,101.978-169.953,97.923-199.082-9.429-329.843-223.241-392.075-390.2-15.916-42.7-27.524-87.032-43.158-129.614-19.216-52.337-46.833-98.123-111.327-69.057-100.281,45.195-58.245,222.592-203.081,213.573-114.942-7.157-236.96-147.121-326.891-213.502-5.689-4.199-22.629-17.72-27.732-19.781v-15.358c16.711,6.487,49.493,33.867,64.766,46.096,76.851,61.538,184.261,177.924,285.222,187.983,109.396,10.899,104.215-94.772,148.152-162.59,49.806-76.876,146.877-82.889,178.059,12.031l14.881,41.255c-.264-18.786-.159-37.356,2.066-56.01,11.226-94.117,74.595-198.361,40.194-292.907-18.138-49.849-63.574-83.355-90.977-17.035-17.027,41.208-23.912,91.547-37.935,134.837-30.826,95.157-85.286,178.028-178.281,77.089-64.437-69.941-102.096-161.509-148.586-243.032-32.122-56.327-78.799-117.952-141.756-53.12-38.971,40.132-78.625,111.191-133.885,130.553l-1.918.007-.002-14.405Z" style="fill:#b59361;"/><path d="M1.92,478.004c.435-2.325,10.489-16.526,12.643-20.471,20.414-37.38,31.811-76.901,48.618-115.516,19.585-44.999,46.319-88.325,103.384-70.412,68.642,21.547,86.129,105.036,118.344,160.971,22.972,39.887,79.179,118.608,124.42,131.859,29.44,8.622,33.439-15.505,37.679-38.239,10.11-54.203,12.758-100.371,47.472-146.417,56.397-74.806,168.271-73.747,244.621-31.856,118.171,64.837,109.455,209.125,106.483,325.369-4.17,163.054-12.913,326.897,84.683,467.308,59.036,84.935,191.365,186.124,247.224,37.371,45.239-120.474,23.419-333.577,125.526-420.626,56.398-48.081,135.503-34.687,197.222-4.826v14.398c-26.446-11.16-53.436-22.07-82.204-25.779-175.245-22.591-182.387,207.436-201.111,326.53-12.53,79.697-33.68,216.879-144.954,198.066-70.742-11.961-136.338-85.878-170.841-144.949-74.733-127.948-74.205-266.392-70.903-410.059,3.311-144.045,26.336-333.774-157.339-372.418-121.523-25.567-185.149,37.849-206.101,151.035-8.672,46.844-8.401,119.193-79.03,80.345-57.227-31.476-109.32-115.147-137.102-172.929-17.327-36.036-28.456-75.144-63.183-99.031-84.757-58.298-110.099,49.086-133.254,106.352-12.16,30.073-29.045,71.422-51.339,95.038-1.592-1-.956-3.643-.977-5.265-.053-4.273-.677-12.149.017-15.851Z" style="fill:#b59361;"/><path d="M1500.24,1309.231v13.438c-86.842,21.467-159.257,75.897-243.303,105.601-111.589,39.439-224.812,34.292-338.564,6.421-131.074-32.115-270.441-98.244-277.235-251.641-2.847-64.291,26.28-161.139-50.186-193.615-74.427-31.611-159.188,33.567-228.886,56.522-116.12,38.243-244.793,16.295-362.066-5.483v-13.438c12.496.774,24.874,4.209,37.256,6.417,104.428,18.618,221.592,32.893,323.85-1.894,74.551-25.361,157.297-91.156,238.482-53.639,82.565,38.154,52.552,137.678,55.941,208.976,6.493,136.592,133.225,198.417,249.201,229.763,114.858,31.044,234.154,38.599,347.65-1.584,57.518-20.364,108.226-51.482,163.049-76.912,26.77-12.418,55.553-24.53,84.811-28.931Z" style="fill:#b59361;"/><path d="M1500.24,546.153v14.398c-52.797-11.695-108.562-14.993-159.021,7.512-109.833,48.987-133.262,193.146-205.746,278.017-87.703,102.69-179.845,7.159-226.039-78.182-50.766-93.788-69.143-201.484-59.006-307.647,14.3-149.747,84.184-284.692,110.852-431.461,1.413-4.782,9.466-5.193,11.905-1.335,3.108,4.915-2.815,28.153-4.208,34.948-16.509,80.536-48.159,159.06-71.039,238.031-41.129,141.957-55.043,274.216,1.948,414.621,34.903,85.988,131.411,233.907,226.949,119.507,37.641-45.072,61.007-105.595,90.085-156.596,54.196-95.056,117.835-149.051,233.88-139.485,16.648,1.372,33.002,5.014,49.44,7.671Z" style="fill:#b59361;"/><path d="M1043.353,0c14.326,46.461.812,94.82-16.81,138.205-34.945,86.031-77.63,151.95-92.333,247.453-12.961,84.186-10.677,250.741,104.834,258.39,97.207,6.436,202.47-98.604,288.08-139.992,54.351-26.276,112.662-38.449,173.117-28.931v14.398c-54.333-8.686-107.05-.185-156.799,22.212-98.42,44.308-196.875,154.149-310.153,145.749-115.157-8.539-125.26-168.153-115.662-254.815,6.468-58.405,25.583-114.571,48.941-167.984,27.234-62.277,75.759-139.34,68.024-209.122-.958-8.64-3.253-17.246-5.635-25.56h14.398Z" style="fill:#b59361;"/><path d="M905.135,0c-26.21,46.713-47.002,96.112-70.204,144.321-14.597,30.328-32.307,70.548-58.403,92.293-62.604,52.166-173.704-10.262-245.292-5.33-74.973,5.165-81.249,110.411-147.74,115.258-55.329,4.033-115.296-50.92-159.159-79.917-55.411-36.63-117.787-65.11-185.423-67.976-12.419-.526-24.666.987-36.994.999v-13.438c1.077-.274,1.811-.87,3.308-.967,77.633-5.017,148.144,19.997,212.973,60.642,41.68,26.131,111.086,88.748,160.484,87.23,41.44-1.273,58.987-51.076,83.001-77.796.913-1.016,3.114-1.406,2.88-3.839,10.603-8.091,17.143-16.74,29.734-23.537,83.409-45.027,223.248,72.015,291.636-22.233,28.375-39.105,49.763-98.32,71.342-142.704,10.271-21.126,21.657-41.699,31.539-63.006h16.317Z" style="fill:#b59361;"/><path d="M839.866,0c-7.289,30.201-16.389,60.719-31.51,87.991-16.355,29.498-36.253,49.728-70.234,56.945-1.511.321-1.814.941-1.92.96-1.149.203-2.622-.151-3.839,0-1.81.224-2.728.947-2.88.96-1.893.157-3.854-.086-5.759,0-.319.014-.64-.012-.96,0-8.637.326-18.223.266-26.876,0-.32-.01-.64.011-.96,0h-7.679c-.823-1.585-3.266-.863-4.799-.96-2.22-.14-4.504.167-6.719,0-.197-.015-1.975-.809-3.839-.96-1.896-.153-3.864.159-5.759,0-.197-.017-1.995-.807-3.839-.96-1.896-.157-3.863.153-5.759,0-.151-.012-.888-.802-2.88-.96-1.897-.15-3.863.153-5.759,0-.107-.009-.216-.821-1.92-.96l-43.633-2.919-30.745,1.009c-38.973,3.619-75.214,16.402-107.334,38.563-37.717,26.022-69.382,67.507-111.04,86.208-.729.327-1.509.787-1.92.96-.815.342-1.91.592-2.88.96-.779.296-1.476.806-1.92.96-65.357,22.638-122.48-34.241-171.508-68.933-32.306-22.86-62.486-40.793-100.128-53.927-.305-.106-.947-.631-1.92-.96-16.479-5.568-32.815-9.281-49.912-12.478-.105-.02-.34-.676-1.92-.96-6.951-1.25-14.136-1.764-21.117-2.88v-13.438c17.149,1.033,35.322,4.651,52.039,8.912,49.104,12.514,89.684,35.353,130.634,64.215,39.535,27.865,90.657,76.425,142.112,71.687,38.46-3.542,77.344-48.012,105.733-71.839,57.205-48.013,111.998-64.905,187.184-61.496,41.259,1.871,101.145,17.973,138.678-1.38,40.599-20.934,58.6-83.118,69.089-124.32h14.398Z" style="fill:#b59361;"/><path d="M1500.24,369.541v13.438c-78.565,15.337-153.983,42.556-231.116,63.077-89.854,23.905-205.405,46.706-246.645-62.839-40.27-106.968,23.596-238.341,95.717-316.532,4.078-4.422,28.102-29.017,31.424-30.001,6.373-1.887,11.977,3.904,8.788,9.746-80.569,73.055-152.097,194.052-129.968,306.831,25.684,130.897,152.999,102.33,248.155,76.271,74.389-20.372,147.389-46.698,223.645-59.989Z" style="fill:#b59361;"/><path d="M524.076,1500.24h-16.317c-.25-1.942.735-3.073,1.686-4.548,40.682-63.069,69.98-130.906,45.621-207.373-35.356-110.986-163.686-123.303-262.783-115.378-97.616,7.806-193.594,30.509-290.363,44.144v-13.438c124.988-16.066,265.827-59.273,391.961-44.017,172.232,20.833,229.36,166.98,146.678,313.419-5.21,9.227-11.463,17.863-16.482,27.191Z" style="fill:#b59361;"/><path d="M733.323,0c-.507,2.499-3.811,4.599-5.747,6.25-53.733,45.815-119.456,65.947-189.542,68.657-56.131,2.17-119.631-8.66-172.836,11.454-37.33,14.112-67.373,42.677-106.791,53.503C173.589,163.159,76.372,105.531,1.92,71.029c.531-4.566-1.199-10.397.96-14.398,24.493,9.121,50.669,24.818,75.179,35.683,48.537,21.516,112.071,47.235,165.776,36.818,40.49-7.854,67.598-33.794,103.286-50.29,70.232-32.463,155.152-10.441,231.051-21.389,48.602-7.01,96.622-25.415,134.035-57.454h21.117Z" style="fill:#b59361;"/><path d="M1425.372,0c-1.145,1.422-2.844,1.461-4.46,1.779-61.068,11.995-123.345,26.304-171.205,68.757-85.637,75.962-112.671,234.725,31.511,260.31,72.544,12.873,148.89-5.023,219.023-22.734v14.398c-115.272,32.906-345.194,67.509-334.067-117.621,3.675-61.144,42.692-123.753,91.884-158.636,31.038-22.01,65.781-35.308,102.046-46.251h65.27Z" style="fill:#b69361;"/><path d="M348.424,1500.24h-17.277c-.417-2.244.807-2.921,1.893-4.344,25.07-32.852,46.385-70.477,39.135-113.951-14.085-84.456-156.229-75.45-219.089-72.724-46.039,1.997-105.451,4.146-150.206,12.488-2.149-3.669-.442-9.191-.96-13.438,1.231,0,2.686.151,3.839,0l2.88-.96c46.367-5.909,92.931-9.384,139.648-11.528,89.119-4.091,259.921-12.464,237.113,124.811-4.91,29.553-20.105,55.584-36.975,79.647Z" style="fill:#b59361;"/><path d="M33.595,0c15.931,3.582,32.351,5.667,48.592,7.559,109.945,12.81,224.148,16.162,333.747-1.001,10.823-1.695,21.869-3.286,32.315-6.559h60.47c-9.563,3.532-19.803,5.903-29.742,8.172-130.423,29.765-267.24,28.543-399.67,12.826C54.315,18.031,27.36,11.567,2.88,9.598,1.239,6.697,2.075,3.195,1.92,0h31.675Z" style="fill:#b69361;"/><path d="M216.925,1500.24h-15.358c2.792-7.726,8.345-13.97,11.289-21.826,17.417-46.484-34.822-61.689-69.639-70.04-46.556-11.166-95.558-14.608-143.217-18.517v-13.438c3.974-.637,8.902-.282,12.952.005,51.015,3.611,155.892,13.082,196.214,43.748,28.043,21.327,26.175,52.756,7.759,80.067Z" style="fill:#b59361;"/><path d="M1.92,478.004c-.693,3.703-.069,11.578-.017,15.851.02,1.623-.616,4.266.977,5.265-.82.869-.961,2.115-2.88,1.92v-23.036h1.92Z" style="fill:#6db890;"/><path d="M1.92,544.233l.002,14.405,1.918-.007c-1.108.388-2.069,1.596-3.839.96v-15.358c.612-.089,1.379.132,1.92,0Z" style="fill:#6db890;"/><path d="M1.92,753.479v15.358c-.43-.174-1.335.117-1.92,0v-16.317c.813-.044,1.413.763,1.92.96Z" style="fill:#6db890;"/><path d="M2.88,56.631c-2.159,4.001-.429,9.832-.96,14.398H0v-15.358c1.353-.442,2.135.682,2.88.96Z" style="fill:#6db890;"/><path d="M1.92,1308.271c.518,4.247-1.189,9.769.96,13.438-.491.092-1.689,1.427-2.88.96v-14.398h1.92Z" style="fill:#6db890;"/><path d="M1.92,186.21v13.438c-.64,0-1.28,0-1.92,0v-13.438h.96c.309-.057.662.076.96,0Z" style="fill:#6db890;"/><rect y="1203.647" width="1.92" height="13.438" style="fill:#6db890;"/><path d="M1.92,0c.156,3.195-.681,6.697.96,9.598-.949-.076-1.926.051-2.88,0V0h1.92Z" style="fill:#6db890;"/><path d="M8.639,1307.311l-2.88.96c.15-.02,1.11-.734,2.88-.96Z" style="fill:#6db890;"/><path d="M752.52,1040.474h-.96c-.452-.986-4.233-3.89-3.369-6.7,2.522,1.563,3.066,4.722,4.329,6.7Z" style="fill:#5db49f;"/></g></svg>