<?xml version="1.0" encoding="UTF-8"?><svg id="uuid-ec4450e2-d16a-40e7-bf0e-3836f28972c8" xmlns="http://www.w3.org/2000/svg" viewBox="0 0 343.1 92.3"><g id="uuid-4b6de1c7-2b4c-4905-82d6-dff9191a2e07"><g id="uuid-8db11bab-b9e4-4dcd-8955-d4cfed18f1f3"><g style="isolation:isolate;"><g style="isolation:isolate;"><g style="isolation:isolate;"><path d="M24,14.6c11.7,0,20.5,8.1,20.5,18.7s-.4,5.7-1.6,5.7H5.6c.1,16.7,9.6,22.3,18.9,22.3s15.1-3.8,16.8-8.5l1.9.7c-4,6.1-10.5,10.4-19.4,10.4C8.5,63.9,0,51.3,0,38.6S7.5,14.5,23.9,14.5l.1.1ZM39.3,37.2s4-20.8-15.3-20.8S6.1,26.5,5.6,37.2h33.7Z" style="fill:#fff;"/></g><g style="isolation:isolate;"><path d="M38,15.3h10.2s-2.1,1.3,2.2,11.9c4.8,11.9,7.6,18.6,11.3,27.4,3.9-9.6,7.1-17.3,11.3-27.4.9-2.1,3.4-9.4.9-11.9h8.4c-3.2,2.6-5,6.9-7,11.9-6.4,15.8-9.2,22.4-15.1,36.7-5.9-14.3-8.7-21-15.1-36.7-2-5-3.7-9.3-7-11.9h-.1Z" style="fill:#fff;"/></g></g><g style="isolation:isolate;"><g style="isolation:isolate;"><path d="M104,14.6c11.7,0,20.5,8.1,20.5,18.7s-.4,5.7-1.6,5.7h-37.4c.1,16.7,9.6,22.3,18.9,22.3s15.1-3.8,16.8-8.5l1.9.7c-4,6.1-10.5,10.4-19.4,10.4-15.3,0-23.8-12.6-23.8-25.3s7.5-24.1,23.9-24.1l.2.1ZM119.3,37.2s4-20.8-15.3-20.8-17.9,10.1-18.4,20.8h33.7Z" style="fill:#fff;"/><path d="M124.9,15.3h7.3v38.5c6-14.8,12.7-39.2,27.4-39.2s5.4.7,5.4.7v6s-2-1-5.5-1c-19.4,0-26.1,43.6-31,43.6s-1.4-1.4-1.4-2.5v-28.1c0-7.2.6-15.1-2.3-18h.1Z" style="fill:#fff;"/><path d="M185.1,60.8h-9.1c-1.7,0-3-1.2-3-2.7,0-5.1,8.8-3.4,16.7-5.6h-2c-16.2,0-23.4-9-23.4-19s7.2-19,23.4-19h.9c6,0,8.2,0,12.4-.3,1.9-.1,7.3-1.5,9.4-4v4.3c-1.7,1-4.7,1.3-6.9,1.3h-6c9.4,2.8,13.8,10,13.8,17.7s-3.4,13.3-10.9,16.6c-14.6,7.3-24.9,4.7-24.9,7.8s1.4.9,3.8,1h24.6c3.6,0,6.2.4,6.2,5.4,0,10.9-17.1,28-33.9,28s-13.3-2.2-13.3-9.1c0-10.6,14.1-19.1,22.5-22.5l-.3.1ZM164.5,83.2c0,4.4,4.8,6.6,9.2,6.6,13.9,0,32-19.5,32-27.6s-1-1.4-2.2-1.4h-1.8c-10.3,0-37.2,11.2-37.2,22.4ZM169.6,33.6c0,9.1,5.5,17.1,18,17.1s18-8.1,18-17.1-5.5-17.1-18-17.1-18,8.1-18,17.1Z" style="fill:#fff;"/></g></g><g style="isolation:isolate;"><g style="isolation:isolate;"><path d="M211.3,15.3h7.3v38.5c6-14.8,12.7-39.2,27.4-39.2s5.4.7,5.4.7v6s-2-1-5.5-1c-19.4,0-26.1,43.6-31,43.6s-1.4-1.4-1.4-2.5v-28.1c0-7.2.6-15.1-2.3-18h.1Z" style="fill:#fff;"/></g></g><g style="isolation:isolate;"><g style="isolation:isolate;"><path d="M283.6,30.1c-.6-7.1-3.5-13.8-13.2-13.8s-16.2,5.8-19.9,9.6v-6.2c6.8-3.3,12.1-5.3,18.8-5.3,13.3,0,19.5,7.8,19.5,18.4v12.2c0,7.2-.6,15.1,2.3,18h-28.9c-8,0-13.7,1.2-13.7-6.8,0-16.2,24-25,35.1-26.2v.1ZM253.9,53.6c0,4.5,2.2,6.8,6.3,6.8h23.5v-28.4c-10.7,1.2-29.8,9.7-29.8,21.6h0Z" style="fill:#fff;"/><path d="M290.5,4.2c0-2.3,1.9-4.2,4.2-4.2s4.2,1.9,4.2,4.2-1.9,4.2-4.2,4.2-4.2-1.9-4.2-4.2ZM290.7,63.2c2.9-2.9,2.3-10.8,2.3-18v-11.9c0-7.2.6-15.1-2.3-18h7.3v29.9c0,7.2-.6,15.1,2.3,18h-9.6,0Z" style="fill:#fff;"/><path d="M299.7,15.3h7.3v39.1c4.6-8.2,15.1-39.8,27.6-39.8s6.2,5,6.2,12.6v18c0,7.2-.6,15.1,2.3,18h-9.6c2.9-2.9,2.3-10.8,2.3-18v-21.9s.4-5.2-3.7-5.2c-10.9,0-24.6,45.8-28.5,45.8s-1.6-1.4-1.6-2.5v-28.1c0-7.2.6-15.1-2.3-18h0Z" style="fill:#fff;"/></g></g></g><g style="isolation:isolate;"><g style="isolation:isolate;"><g style="isolation:isolate;"><path d="M224.4,81v-13.3h4.6c1,0,1.8.2,2.5.6s1.2.9,1.5,1.6c.3.6.5,1.3.5,2s-.2,1.4-.5,2.1c-.3.6-.8,1.2-1.5,1.6s-1.5.6-2.5.6h-3.3v4.8h-1.4.1ZM229,68.9h-3.3v6h3.3c.7,0,1.3-.1,1.7-.4s.8-.7,1-1.1c.2-.5.3-.9.3-1.4s-.1-1-.3-1.4c-.2-.5-.6-.8-1-1.1-.5-.3-1-.4-1.7-.4v-.2Z" style="fill:#fff;"/></g></g><g style="isolation:isolate;"><g style="isolation:isolate;"><path d="M235,81v-13.3h1.4v5.9h6.7v-5.9h1.4v13.3h-1.4v-6.2h-6.7v6.2h-1.4Z" style="fill:#fff;"/></g></g><g style="isolation:isolate;"><g style="isolation:isolate;"><path d="M252.8,81.2c-1,0-2-.2-2.8-.6s-1.5-.9-2-1.6-.9-1.4-1.2-2.2c-.3-.8-.4-1.7-.4-2.5s.1-1.7.4-2.5c.3-.8.7-1.6,1.2-2.2.5-.7,1.2-1.2,2-1.6s1.7-.6,2.8-.6,2,.2,2.8.6,1.5.9,2,1.6.9,1.4,1.2,2.2c.3.8.4,1.6.4,2.5s-.1,1.7-.4,2.5c-.3.8-.7,1.6-1.2,2.2-.5.7-1.2,1.2-2,1.6s-1.7.6-2.8.6ZM252.8,79.9c1,0,1.8-.2,2.6-.7.7-.5,1.3-1.1,1.7-2s.6-1.8.6-2.8-.2-2-.6-2.8-1-1.5-1.7-2-1.6-.7-2.6-.7-1.8.2-2.6.7c-.7.5-1.3,1.1-1.7,2-.4.8-.6,1.8-.6,2.8s.2,2,.6,2.8c.4.8,1,1.5,1.7,2s1.6.7,2.6.7Z" style="fill:#fff;"/></g><g style="isolation:isolate;"><path d="M262,81v-12.1h-4.3v-1.2h10v1.2h-4.3v12.1h-1.4,0Z" style="fill:#fff;"/></g></g><g style="isolation:isolate;"><g style="isolation:isolate;"><path d="M275.2,81.2c-1,0-2-.2-2.8-.6s-1.5-.9-2-1.6-.9-1.4-1.2-2.2c-.3-.8-.4-1.7-.4-2.5s.1-1.7.4-2.5.7-1.6,1.2-2.2c.5-.7,1.2-1.2,2-1.6s1.7-.6,2.8-.6,2,.2,2.8.6,1.5.9,2,1.6.9,1.4,1.2,2.2c.3.8.4,1.6.4,2.5s-.1,1.7-.4,2.5-.7,1.6-1.2,2.2-1.2,1.2-2,1.6-1.7.6-2.8.6ZM275.2,79.9c1,0,1.8-.2,2.6-.7.7-.5,1.3-1.1,1.7-2s.6-1.8.6-2.8-.2-2-.6-2.8-1-1.5-1.7-2-1.6-.7-2.6-.7-1.8.2-2.6.7c-.7.5-1.3,1.1-1.7,2s-.6,1.8-.6,2.8.2,2,.6,2.8,1,1.5,1.7,2,1.6.7,2.6.7Z" style="fill:#fff;"/></g></g><g style="isolation:isolate;"><g style="isolation:isolate;"><path d="M283.3,81v-13.3h5c.8,0,1.5.2,2.1.5s1,.7,1.3,1.2.5,1.1.5,1.6-.1,1.1-.3,1.5c-.2.4-.5.7-.8,1s-.6.4-.9.5h0c.4.2.8.4,1.1.7s.7.6.9,1c.3.4.4,1,.4,1.6s-.1,1.2-.4,1.8-.8,1-1.4,1.4-1.5.5-2.5.5h-5.1.1ZM288.3,68.9h-3.6v4.7h3.6c.6,0,1.1-.1,1.5-.4s.7-.5.8-.9c.2-.4.3-.7.3-1.1s0-.8-.3-1.1c-.2-.4-.5-.7-.8-.9s-.9-.3-1.5-.3h0ZM288.4,74.8h-3.7v5h3.7c.7,0,1.3-.1,1.7-.4.4-.2.7-.6,1-.9s.3-.8.3-1.2-.1-.8-.3-1.2-.5-.7-1-.9c-.4-.2-1-.4-1.7-.4Z" style="fill:#fff;"/></g></g><g style="isolation:isolate;"><g style="isolation:isolate;"><path d="M300.2,81.2c-1,0-2-.2-2.8-.6s-1.5-.9-2-1.6-.9-1.4-1.2-2.2c-.3-.8-.4-1.7-.4-2.5s.1-1.7.4-2.5.7-1.6,1.2-2.2c.5-.7,1.2-1.2,2-1.6s1.7-.6,2.8-.6,2,.2,2.8.6,1.5.9,2,1.6.9,1.4,1.2,2.2c.3.8.4,1.6.4,2.5s-.1,1.7-.4,2.5-.7,1.6-1.2,2.2c-.5.7-1.2,1.2-2,1.6s-1.7.6-2.8.6ZM300.2,79.9c1,0,1.8-.2,2.6-.7.7-.5,1.3-1.1,1.7-2s.6-1.8.6-2.8-.2-2-.6-2.8-1-1.5-1.7-2-1.6-.7-2.6-.7-1.8.2-2.6.7c-.7.5-1.3,1.1-1.7,2-.4.8-.6,1.8-.6,2.8s.2,2,.6,2.8,1,1.5,1.7,2,1.6.7,2.6.7Z" style="fill:#fff;"/></g></g><g style="isolation:isolate;"><g style="isolation:isolate;"><path d="M314.3,81.2c-1,0-2-.2-2.8-.6s-1.5-.9-2-1.6-.9-1.4-1.2-2.2c-.3-.8-.4-1.7-.4-2.5s.1-1.7.4-2.5.7-1.6,1.2-2.2c.5-.7,1.2-1.2,2-1.6s1.7-.6,2.8-.6,2,.2,2.8.6,1.5.9,2,1.6.9,1.4,1.2,2.2c.3.8.4,1.6.4,2.5s-.1,1.7-.4,2.5-.7,1.6-1.2,2.2c-.5.7-1.2,1.2-2,1.6s-1.7.6-2.8.6ZM314.3,79.9c1,0,1.8-.2,2.6-.7.7-.5,1.3-1.1,1.7-2s.6-1.8.6-2.8-.2-2-.6-2.8-1-1.5-1.7-2-1.6-.7-2.6-.7-1.8.2-2.6.7c-.7.5-1.3,1.1-1.7,2-.4.8-.6,1.8-.6,2.8s.2,2,.6,2.8,1,1.5,1.7,2,1.6.7,2.6.7Z" style="fill:#fff;"/></g></g><g style="isolation:isolate;"><g style="isolation:isolate;"><path d="M324.8,81v-12.1h-4.3v-1.2h10v1.2h-4.3v12.1h-1.4Z" style="fill:#fff;"/><path d="M332.1,81v-13.3h1.4v5.9h6.7v-5.9h1.4v13.3h-1.4v-6.2h-6.7v6.2h-1.4Z" style="fill:#fff;"/></g></g></g></g></g></svg>